# xmcd CD database file
#
# Track frame offsets:
#	150
#	17400
#	26850
#	42900
#	52245
#	66167
#	82520
#	92345
#	108765
#	116137
#	124982
#	140412
#
# Disc length: 1999 seconds
#
# Revision: 0
# Processed by: cddbd v1.5.2PL0 Copyright (c) Steve Scherf et al.
# Submitted via: CDex 1.70beta3
#
DISCID=9807cd0c
DTITLE=Os Gatos - Os Gatos
DYEAR=1965
DGENRE=Jazz
TTITLE0=Canadian Sunset
TTITLE1=Novo Sol
TTITLE2=Razão De Viver
TTITLE3=São Salvador
TTITLE4=Tristeza De Nos Dois
TTITLE5=Nuvens
TTITLE6=Sambidú
TTITLE7=A Chuva
TTITLE8=Verdade Em Paz
TTITLE9=Estamos Aí
TTITLE10=Dois Peixinhos
TTITLE11=O Show É O Meu Rio
EXTD=YEAR: 1965
EXTT0=
EXTT1=
EXTT2=
EXTT3=
EXTT4=
EXTT5=
EXTT6=
EXTT7=
EXTT8=
EXTT9=
EXTT10=
EXTT11=
PLAYORDER=
